<svg width="1000" height="1000" viewBox="0 0 1000 1000" fill="none" xmlns="http://www.w3.org/2000/svg">
<g filter="url(#filter0_d_13_2)">
<path d="M498.444 112L753.927 212.182L778 223.822V443.358L703 413.358V272.589L489.027 187H278V271H498.444L703 346H278V494.11L490.5 409.111L590.509 449.114L590.5 449.137L778 524.137V554.911L776.471 560.102L740.5 549.5C776.47 560.102 776.468 560.11 776.466 560.118C776.465 560.122 776.462 560.13 776.46 560.136C776.456 560.149 776.452 560.163 776.447 560.179C776.438 560.21 776.427 560.246 776.415 560.287C776.39 560.37 776.359 560.475 776.321 560.601C776.245 560.852 776.143 561.187 776.014 561.604C775.755 562.439 775.388 563.603 774.907 565.08C773.946 568.034 772.528 572.244 770.608 577.588C766.77 588.273 760.922 603.503 752.698 622.296C736.259 659.863 710.277 711.786 671.809 770.14C631.323 831.554 588.975 864.429 554.485 881.749C537.371 890.344 522.576 894.913 511.455 897.328C505.904 898.534 501.288 899.199 497.771 899.563C496.013 899.746 494.53 899.853 493.342 899.916C492.748 899.947 492.227 899.968 491.783 899.98C491.591 899.986 491.413 899.989 491.249 899.992C491.153 899.994 491.053 899.998 490.95 900C490.475 900.008 489.927 900.011 489.309 900.005C488.073 899.992 486.557 899.942 484.777 899.822C481.217 899.582 476.609 899.06 471.093 897.994C460.026 895.856 445.464 891.559 428.51 883.121C394.411 866.15 352.25 833.246 309.525 770.638C283.378 732.322 263.29 697.273 248.02 667.181L317.957 639.205C331.466 665.258 348.988 695.41 371.475 728.362C408 781.886 440.839 805.482 461.928 815.978C472.567 821.273 480.645 823.452 485.321 824.355C487.596 824.795 489.11 824.94 489.768 824.987C489.843 824.98 489.93 824.975 490.028 824.965C490.945 824.87 492.826 824.626 495.537 824.037C500.939 822.864 509.723 820.302 520.827 814.726C542.775 803.704 575.427 780.078 609.191 728.86C644.973 674.582 668.991 626.505 683.989 592.229C687.442 584.339 690.412 577.185 692.938 570.864C659.363 557.434 630.468 545.876 601.573 534.318C567.18 520.561 532.786 506.803 490.5 489.889L411.237 521.593L411.073 521.182L217.393 598.653C214.002 589.78 211.361 582.224 209.358 576.138C207.611 570.826 206.349 566.633 205.497 563.661C205.071 562.175 204.748 560.994 204.518 560.131C204.403 559.699 204.311 559.346 204.241 559.075C204.206 558.94 204.177 558.824 204.153 558.729C204.141 558.682 204.13 558.64 204.121 558.603C204.116 558.584 204.112 558.567 204.108 558.551C204.106 558.543 204.104 558.531 204.103 558.527C204.102 558.516 204.38 558.437 240.5 549.5L204.098 558.507L203 554.07V112H498.444Z" fill="white"/>
</g>
<defs>
<filter id="filter0_d_13_2" x="-4" y="0" width="1008" height="1008" filterUnits="userSpaceOnUse" color-interpolation-filters="sRGB">
<feFlood flood-opacity="0" result="BackgroundImageFix"/>
<feColorMatrix in="SourceAlpha" type="matrix" values="0 0 0 0 0 0 0 0 0 0 0 0 0 0 0 0 0 0 127 0" result="hardAlpha"/>
<feOffset dy="4"/>
<feGaussianBlur stdDeviation="2"/>
<feComposite in2="hardAlpha" operator="out"/>
<feColorMatrix type="matrix" values="0 0 0 0 0 0 0 0 0 0 0 0 0 0 0 0 0 0 0.25 0"/>
<feBlend mode="normal" in2="BackgroundImageFix" result="effect1_dropShadow_13_2"/>
<feBlend mode="normal" in="SourceGraphic" in2="effect1_dropShadow_13_2" result="shape"/>
</filter>
</defs>
</svg>
